<?xml version="1.0" encoding="UTF-8"?>
<svg id="Layer_1" data-name="Layer 1" xmlns="http://www.w3.org/2000/svg" viewBox="0 0 616.5 411.44">
  <defs>
    <style>
      .cls-1 {
        fill: #000;
        stroke-width: 0px;
      }
    </style>
  </defs>
  <g id="_0sZNGk" data-name="0sZNGk">
    <path class="cls-1" d="M308.44.62c101.7,0,203.4.01,305.09-.07,2.54,0,2.97.56,2.97,3.02-.07,134.95-.07,269.89,0,404.84,0,2.41-.36,3.04-2.95,3.04-203.4-.08-406.79-.08-610.19-.01-2.36,0-2.8-.59-2.8-2.85.06-135.05.06-270.1,0-405.15,0-2.23.38-2.88,2.78-2.88,101.7.07,203.4.06,305.09.06ZM340.38,140.48c-7.3-4.17-14.48-8.28-21.67-12.38-1.4-.8-2.57-.02-3.73.65-22.2,12.82-44.38,25.65-66.61,38.42-1.86,1.07-2.5,2.39-2.48,4.46.09,6.66.03,13.33.04,20,0,3.91.03,3.93,3.33,2.02,28.86-16.66,57.71-33.33,86.55-50.02,1.47-.85,3.18-1.42,4.56-3.15ZM382.82,231.37c0-3.28,0-6.56,0-9.84,0-3.95-.08-3.99-3.63-1.94-11.54,6.67-23.06,13.36-34.6,20.03-17.13,9.9-34.26,19.79-51.39,29.7-3.15,1.82-3.15,1.95,0,3.78,5.85,3.4,11.74,6.73,17.56,10.18,1.68,1,3.09,1.11,4.84.09,21.54-12.51,43.11-24.97,64.7-37.4,1.81-1.04,2.64-2.32,2.55-4.44-.13-3.38-.04-6.77-.03-10.15ZM314.66,206.68c0-3.49-.08-6.98.02-10.46.08-2.74-.79-2.92-3-1.62-9.64,5.66-19.34,11.21-29.02,16.8-15.01,8.67-30.02,17.33-45.02,26.01-2.97,1.72-2.97,1.91,0,3.63,5.94,3.45,11.91,6.85,17.84,10.32,1.41.83,2.62,1.25,4.25.3,17.55-10.21,35.13-20.37,52.73-30.49,1.64-.95,2.24-2.21,2.21-4.02-.06-3.49-.02-6.98-.01-10.46Z"/>
  </g>
</svg>